RobotoSerifMicroCond-Super Italic 05fz.ufo
<glyph name="M" format="2">
  <advance width="903"/>
  <unicode hex="004D"/>
  <anchor x="436.0" y="0" name="bottom"/>
  <outline>
    <contour>
      <point x="-40" y="0" type="line"/>
      <point x="125" y="0" type="line"/>
      <point x="147" y="85" type="line"/>
      <point x="139" y="85" type="line" smooth="yes"/>
      <point x="130" y="85"/>
      <point x="112" y="88"/>
      <point x="114" y="95" type="curve" smooth="yes"/>
      <point x="264" y="695" type="line"/>
      <point x="250" y="688" type="line"/>
      <point x="250" y="-7" type="line"/>
      <point x="346" y="-7" type="line"/>
      <point x="703" y="690" type="line"/>
      <point x="689" y="685" type="line"/>
      <point x="542" y="95" type="line" smooth="yes"/>
      <point x="540" y="88"/>
      <point x="517" y="85"/>
      <point x="508" y="85" type="curve" smooth="yes"/>
      <point x="502" y="85" type="line"/>
      <point x="480" y="0" type="line"/>
      <point x="788" y="0" type="line"/>
      <point x="810" y="85" type="line"/>
      <point x="800" y="85" type="line" smooth="yes"/>
      <point x="783" y="85"/>
      <point x="772" y="92"/>
      <point x="779" y="121" type="curve" smooth="yes"/>
      <point x="895" y="589" type="line" smooth="yes"/>
      <point x="902" y="618"/>
      <point x="917" y="625"/>
      <point x="935" y="625" type="curve" smooth="yes"/>
      <point x="944" y="625" type="line"/>
      <point x="966" y="710" type="line"/>
      <point x="622" y="710" type="line"/>
      <point x="410" y="269" type="line"/>
      <point x="464" y="231" type="line"/>
      <point x="468" y="710" type="line"/>
      <point x="138" y="710" type="line"/>
      <point x="116" y="625" type="line"/>
      <point x="125" y="625" type="line" smooth="yes"/>
      <point x="144" y="625"/>
      <point x="156" y="618"/>
      <point x="147" y="589" type="curve" smooth="yes"/>
      <point x="31" y="121" type="line" smooth="yes"/>
      <point x="23" y="92"/>
      <point x="9" y="85"/>
      <point x="-9" y="85" type="curve" smooth="yes"/>
      <point x="-18" y="85" type="line"/>
    </contour>
  </outline>
</glyph>
<glyph name="S" format="2">
  <advance width="607"/>
  <unicode hex="0053"/>
  <anchor x="348" y="741" name="top"/>
  <anchor x="338" y="0" name="bottom"/>
  <outline>
    <contour>
      <point x="306" y="-25" type="curve" smooth="yes"/>
      <point x="485.39607843137253" y="-25.0"/>
      <point x="563.0" y="84.0"/>
      <point x="563" y="228" type="curve" smooth="yes"/>
      <point x="563.0" y="354.0"/>
      <point x="496.3630743695087" y="405.28748385230233"/>
      <point x="407" y="452" type="curve" smooth="yes"/>
      <point x="322.4764241442375" y="496.2742540196851"/>
      <point x="280.0" y="510.0"/>
      <point x="280" y="572" type="curve" smooth="yes"/>
      <point x="280.0" y="626.0"/>
      <point x="308.6829268292683" y="654.0"/>
      <point x="364" y="654" type="curve" smooth="yes"/>
      <point x="439.64102564102564" y="654.0"/>
      <point x="471.99753254634635" y="606.0254147726326"/>
      <point x="482" y="503" type="curve"/>
      <point x="583" y="503" type="line"/>
      <point x="637" y="720" type="line"/>
      <point x="554" y="720" type="line"/>
      <point x="501" y="596" type="line"/>
      <point x="492.670197811734" y="554.35098905867"/>
      <point x="501.20608238845693" y="554.4650926176834"/>
      <point x="517" y="585" type="curve"/>
      <point x="511.99980213744095" y="690.0041551137406"/>
      <point x="454.6457142857143" y="735.0"/>
      <point x="341" y="735" type="curve" smooth="yes"/>
      <point x="168.5983606557377" y="735.0"/>
      <point x="95.0" y="623.0"/>
      <point x="95" y="488" type="curve" smooth="yes"/>
      <point x="95.0" y="384.0"/>
      <point x="143.51964900807224" y="329.2557713073901"/>
      <point x="221" y="288" type="curve" smooth="yes"/>
      <point x="318.5065064887458" y="236.1996684278538"/>
      <point x="374.0" y="214.0"/>
      <point x="374" y="145" type="curve" smooth="yes"/>
      <point x="374.0" y="86.0"/>
      <point x="346" y="57.0"/>
      <point x="284" y="57" type="curve" smooth="yes"/>
      <point x="202" y="57.0"/>
      <point x="143.002704504912" y="108.97357906739808"/>
      <point x="130" y="236" type="curve"/>
      <point x="22" y="236" type="line"/>
      <point x="-39" y="-4" type="line"/>
      <point x="44" y="-4" type="line"/>
      <point x="105" y="143" type="line"/>
      <point x="108.01577591329891" y="179.18931095958695"/>
      <point x="90.02861754200882" y="166.1502420955463"/>
      <point x="86" y="145" type="curve"/>
      <point x="101.00326542475086" y="25.97409429697649"/>
      <point x="182.43835616438355" y="-25.0"/>
    </contour>
  </outline>
</glyph>
<glyph name="o" format="2">
  <advance width="616"/>
  <unicode hex="006F"/>
  <anchor x="309" y="569" name="top"/>
  <anchor x="422" y="0" name="right"/>
  <anchor x="299" y="0" name="bottom"/>
  <outline>
    <contour>
      <point x="112" y="580"/>
      <point x="26" y="387"/>
      <point x="26" y="203" type="curve" smooth="yes"/>
      <point x="26" y="64"/>
      <point x="121" y="-14"/>
      <point x="263" y="-14" type="curve"/>
      <point x="505" y="-14"/>
      <point x="591" y="179"/>
      <point x="591" y="363" type="curve" smooth="yes"/>
      <point x="591" y="501"/>
      <point x="495" y="580"/>
      <point x="353" y="580" type="curve"/>
    </contour>
    <contour>
      <point x="271" y="74" type="curve" smooth="yes"/>
      <point x="235" y="74"/>
      <point x="226" y="98"/>
      <point x="226" y="138" type="curve" smooth="yes"/>
      <point x="226" y="163"/>
      <point x="238" y="246"/>
      <point x="251" y="305" type="curve" smooth="yes"/>
      <point x="275" y="413"/>
      <point x="297" y="492"/>
      <point x="346" y="492" type="curve" smooth="yes"/>
      <point x="382" y="492"/>
      <point x="391" y="468"/>
      <point x="391" y="428" type="curve" smooth="yes"/>
      <point x="391" y="404"/>
      <point x="379" y="320"/>
      <point x="366" y="261" type="curve" smooth="yes"/>
      <point x="343" y="153"/>
      <point x="320" y="74"/>
    </contour>
  </outline>
</glyph>
<glyph name="u" format="2">
  <advance width="651"/>
  <unicode hex="0075"/>
  <anchor x="294" y="569" name="top"/>
  <anchor x="492" y="0" name="right"/>
  <anchor x="290" y="0" name="bottom"/>
  <outline>
    <contour>
      <point x="253" y="174" type="curve" smooth="yes"/>
      <point x="351" y="569" type="line"/>
      <point x="104" y="569" type="line"/>
      <point x="84" y="489" type="line"/>
      <point x="91" y="487" type="line" smooth="yes"/>
      <point x="106" y="483"/>
      <point x="112" y="471"/>
      <point x="109" y="458" type="curve" smooth="yes"/>
      <point x="39" y="175" type="line" smooth="yes"/>
      <point x="31" y="143"/>
      <point x="26" y="108"/>
      <point x="26" y="79" type="curve" smooth="yes"/>
      <point x="26" y="25"/>
      <point x="57" y="-11"/>
      <point x="124" y="-11" type="curve" smooth="yes"/>
      <point x="227" y="-11"/>
      <point x="305" y="61"/>
      <point x="382" y="174" type="curve"/>
      <point x="387" y="257" type="line"/>
      <point x="329" y="172"/>
      <point x="289" y="111"/>
      <point x="262" y="111" type="curve" smooth="yes"/>
      <point x="251" y="111"/>
      <point x="247" y="119"/>
      <point x="247" y="131" type="curve" smooth="yes"/>
      <point x="247" y="142"/>
      <point x="250" y="160"/>
    </contour>
    <contour>
      <point x="461" y="0" type="curve" smooth="yes"/>
      <point x="494" y="0"/>
      <point x="529" y="0"/>
      <point x="563" y="0" type="curve"/>
      <point x="585" y="96" type="line"/>
      <point x="581" y="96"/>
      <point x="575" y="96"/>
      <point x="572" y="96" type="curve" smooth="yes"/>
      <point x="555" y="96"/>
      <point x="544" y="103"/>
      <point x="544" y="120" type="curve" smooth="yes"/>
      <point x="544" y="133"/>
      <point x="552" y="162"/>
      <point x="574" y="251" type="curve" smooth="yes"/>
      <point x="652" y="569" type="line"/>
      <point x="438" y="569" type="line"/>
      <point x="336" y="161" type="line"/>
      <point x="348" y="157" type="line"/>
      <point x="348" y="125"/>
      <point x="348" y="104"/>
      <point x="348" y="93" type="curve" smooth="yes"/>
      <point x="348" y="33"/>
      <point x="390" y="0"/>
    </contour>
  </outline>
</glyph>
<glyph name="x" format="2">
  <advance width="579"/>
  <unicode hex="0078"/>
  <outline>
    <contour>
      <point x="385" y="281" type="line"/>
      <point x="617" y="558" type="line"/>
      <point x="617" y="569" type="line"/>
      <point x="466" y="569" type="line"/>
      <point x="334" y="333" type="line"/>
    </contour>
    <contour>
      <point x="-30" y="0" type="line"/>
      <point x="121" y="0" type="line"/>
      <point x="251" y="228" type="line"/>
      <point x="196" y="282" type="line"/>
      <point x="-29" y="11" type="line"/>
    </contour>
    <contour>
      <point x="333" y="0" type="curve"/>
      <point x="383" y="0"/>
      <point x="436" y="0"/>
      <point x="487" y="0" type="curve"/>
      <point x="509" y="96" type="line"/>
      <point x="500" y="96"/>
      <point x="490" y="96"/>
      <point x="481" y="96" type="curve" smooth="yes"/>
      <point x="459.2105263157895" y="96.0"/>
      <point x="450.3956578624982" y="102.18639426278173"/>
      <point x="445" y="120" type="curve" smooth="yes"/>
      <point x="309" y="569" type="line"/>
      <point x="112" y="569" type="line"/>
      <point x="92" y="489" type="line"/>
      <point x="101" y="486" type="line" smooth="yes"/>
      <point x="120" y="480"/>
      <point x="131" y="471"/>
      <point x="136" y="454" type="curve" smooth="yes"/>
      <point x="249" y="72" type="line" smooth="yes"/>
      <point x="266" y="16"/>
      <point x="281" y="0"/>
    </contour>
  </outline>
</glyph>
<glyph name="y" format="2">
  <advance width="627"/>
  <unicode hex="0079"/>
  <anchor x="341" y="569" name="top"/>
  <anchor x="311" y="-211" name="bottom"/>
  <outline>
    <contour>
      <point x="218" y="-43" type="line"/>
      <point x="135" y="457" type="line" smooth="yes"/>
      <point x="134" y="470"/>
      <point x="134" y="479"/>
      <point x="112" y="486" type="curve" smooth="yes"/>
      <point x="104" y="489" type="line"/>
      <point x="124" y="569" type="line"/>
      <point x="330" y="569" type="line"/>
      <point x="392" y="115" type="line"/>
      <point x="337" y="43" type="line"/>
    </contour>
    <contour>
      <point x="322" y="102" type="line"/>
      <point x="389" y="254"/>
      <point x="454" y="407"/>
      <point x="525" y="569" type="curve"/>
      <point x="665" y="569" type="line"/>
      <point x="665" y="561" type="line"/>
      <point x="563" y="376"/>
      <point x="448" y="160"/>
      <point x="363" y="14" type="curve" smooth="yes"/>
      <point x="255" y="-170"/>
      <point x="196" y="-245"/>
      <point x="50" y="-245" type="curve" smooth="yes"/>
      <point x="-4" y="-245"/>
      <point x="-45" y="-231"/>
      <point x="-62" y="-220" type="curve"/>
      <point x="-31" y="-97" type="line"/>
      <point x="-21" y="-103"/>
      <point x="10" y="-119"/>
      <point x="66" y="-119" type="curve" smooth="yes"/>
      <point x="152" y="-119"/>
      <point x="200" y="-65"/>
      <point x="252" y="55" type="curve"/>
    </contour>
  </outline>
</glyph>
<glyph name="z" format="2">
  <advance width="596"/>
  <unicode hex="007A"/>
  <anchor x="323" y="569" name="top"/>
  <anchor x="321" y="0" name="bottom"/>
  <outline>
    <contour>
      <point x="85" y="0" type="line"/>
      <point x="547" y="436" type="line"/>
      <point x="581" y="569" type="line"/>
      <point x="101" y="569" type="line"/>
      <point x="40" y="331" type="line"/>
      <point x="136" y="331" type="line"/>
      <point x="148" y="357" type="line" smooth="yes"/>
      <point x="168" y="399"/>
      <point x="192" y="411"/>
      <point x="276" y="411" type="curve" smooth="yes"/>
      <point x="424" y="411" type="line"/>
      <point x="442" y="467" type="line"/>
      <point x="-4" y="61" type="line"/>
      <point x="-18" y="0" type="line"/>
    </contour>
    <contour>
      <point x="389" y="-12" type="curve"/>
      <point x="499" y="-12"/>
      <point x="554" y="88"/>
      <point x="551" y="247" type="curve"/>
      <point x="476" y="258" type="line"/>
      <point x="459" y="182"/>
      <point x="433" y="165"/>
      <point x="367" y="165" type="curve"/>
      <point x="310" y="165"/>
      <point x="275" y="188"/>
      <point x="255" y="203" type="curve"/>
      <point x="218" y="161" type="line"/>
      <point x="260" y="72"/>
      <point x="284" y="-12"/>
    </contour>
  </outline>
</glyph>
<glyph name="Euro.proportional" format="2">
  <advance width="641"/>
  <outline>
    <contour>
      <point x="473" y="735" type="curve" smooth="yes"/>
      <point x="203" y="735"/>
      <point x="85" y="502"/>
      <point x="85" y="201" type="curve" smooth="yes"/>
      <point x="85" y="47"/>
      <point x="153" y="-25"/>
      <point x="317" y="-25" type="curve" smooth="yes"/>
      <point x="447" y="-25"/>
      <point x="512" y="32"/>
      <point x="559" y="145" type="curve"/>
      <point x="478" y="182" type="line"/>
      <point x="446" y="118"/>
      <point x="414" y="70"/>
      <point x="359" y="70" type="curve" smooth="yes"/>
      <point x="312" y="70"/>
      <point x="288" y="87"/>
      <point x="288" y="143" type="curve" smooth="yes"/>
      <point x="288" y="185"/>
      <point x="294" y="254"/>
      <point x="319" y="364" type="curve" smooth="yes"/>
      <point x="369" y="588"/>
      <point x="391" y="652"/>
      <point x="477" y="652" type="curve" smooth="yes"/>
      <point x="519" y="652"/>
      <point x="556" y="640"/>
      <point x="563" y="624" type="curve"/>
      <point x="585" y="629"/>
      <point x="528" y="676"/>
      <point x="510" y="671" type="curve"/>
      <point x="479" y="549" type="line"/>
      <point x="631" y="549" type="line"/>
      <point x="668" y="698" type="line"/>
      <point x="645" y="711"/>
      <point x="589" y="735"/>
    </contour>
    <contour>
      <point x="58" y="470" type="line"/>
      <point x="39" y="395" type="line"/>
      <point x="497" y="395" type="line"/>
      <point x="516" y="470" type="line"/>
    </contour>
    <contour>
      <point x="16" y="297" type="line"/>
      <point x="-3" y="222" type="line"/>
      <point x="428" y="222" type="line"/>
      <point x="447" y="297" type="line"/>
    </contour>
  </outline>
</glyph>
<glyph name="colonmonetary.proportional" format="2">
  <advance width="648"/>
  <outline>
    <contour>
      <point x="305" y="10" type="curve" smooth="yes"/>
      <point x="439" y="10"/>
      <point x="515" y="85"/>
      <point x="564" y="220" type="curve"/>
      <point x="482" y="251" type="line"/>
      <point x="440" y="148"/>
      <point x="387" y="94"/>
      <point x="307" y="94" type="curve" smooth="yes"/>
      <point x="232.0" y="94.0"/>
      <point x="195.0" y="120.72549019607843"/>
      <point x="195" y="188" type="curve" smooth="yes"/>
      <point x="195.0" y="250.91326530612244"/>
      <point x="204.4488247827049" y="302.88716166703534"/>
      <point x="229" y="397" type="curve" smooth="yes"/>
      <point x="274.0667163763824" y="566.4900420242207"/>
      <point x="315.4811320754717" y="622.0"/>
      <point x="435" y="622" type="curve" smooth="yes"/>
      <point x="543" y="622"/>
      <point x="598" y="585"/>
      <point x="608" y="578" type="curve"/>
      <point x="618" y="591"/>
      <point x="563" y="636"/>
      <point x="543" y="645" type="curve"/>
      <point x="494" y="447" type="line"/>
      <point x="614" y="447" type="line"/>
      <point x="668" y="662" type="line"/>
      <point x="625" y="681"/>
      <point x="529" y="700"/>
      <point x="406" y="700" type="curve" smooth="yes"/>
      <point x="123" y="700"/>
      <point x="30" y="447"/>
      <point x="30" y="254" type="curve" smooth="yes"/>
      <point x="30" y="103"/>
      <point x="119" y="10"/>
    </contour>
    <contour>
      <point x="412" y="790" type="line"/>
      <point x="361" y="666" type="line"/>
      <point x="395" y="647" type="line"/>
      <point x="174" y="98" type="line"/>
      <point x="139" y="133" type="line"/>
      <point x="36" y="-120" type="line"/>
      <point x="131" y="-120" type="line"/>
      <point x="205" y="58" type="line"/>
      <point x="203" y="71" type="line"/>
      <point x="439" y="655" type="line"/>
      <point x="461" y="680" type="line"/>
      <point x="507" y="790" type="line"/>
    </contour>
    <contour>
      <point x="552" y="790" type="line"/>
      <point x="506" y="680" type="line"/>
      <point x="508" y="662" type="line"/>
      <point x="262" y="51" type="line"/>
      <point x="244" y="41" type="line"/>
      <point x="176" y="-120" type="line"/>
      <point x="271" y="-120" type="line"/>
      <point x="332" y="28" type="line"/>
      <point x="300" y="44" type="line"/>
      <point x="545" y="656" type="line"/>
      <point x="597" y="667" type="line"/>
      <point x="647" y="790" type="line"/>
    </contour>
  </outline>
</glyph>
<glyph name="currency.proportional" format="2">
  <advance width="575"/>
  <outline>
    <contour>
      <point x="59" y="98" type="line"/>
      <point x="208" y="215" type="line"/>
      <point x="137" y="297" type="line"/>
      <point x="-6" y="183" type="line"/>
    </contour>
    <contour>
      <point x="83" y="588" type="line"/>
      <point x="181" y="455" type="line"/>
      <point x="286" y="529" type="line"/>
      <point x="187" y="663" type="line"/>
    </contour>
    <contour>
      <point x="288" y="255" type="curve"/>
      <point x="231" y="255"/>
      <point x="208" y="287"/>
      <point x="208" y="350" type="curve" smooth="yes"/>
      <point x="208" y="419"/>
      <point x="232" y="492"/>
      <point x="299" y="492" type="curve"/>
      <point x="356" y="492"/>
      <point x="378" y="460"/>
      <point x="378" y="397" type="curve" smooth="yes"/>
      <point x="378" y="328"/>
      <point x="355" y="255"/>
    </contour>
    <contour>
      <point x="259" y="149" type="curve"/>
      <point x="366" y="149"/>
      <point x="495" y="269"/>
      <point x="495" y="386" type="curve" smooth="yes"/>
      <point x="495" y="485"/>
      <point x="423" y="598"/>
      <point x="327" y="598" type="curve"/>
      <point x="220" y="598"/>
      <point x="91" y="478"/>
      <point x="91" y="361" type="curve" smooth="yes"/>
      <point x="91" y="262"/>
      <point x="163" y="149"/>
    </contour>
    <contour>
      <point x="399" y="83" type="line"/>
      <point x="503" y="158" type="line"/>
      <point x="405" y="291" type="line"/>
      <point x="300" y="217" type="line"/>
    </contour>
    <contour>
      <point x="592" y="562" type="line"/>
      <point x="527" y="648" type="line"/>
      <point x="378" y="531" type="line"/>
      <point x="449" y="449" type="line"/>
    </contour>
  </outline>
</glyph>
<glyph name="dollar.altprop" format="2">
  <advance width="605"/>
  <outline>
    <contour>
      <point x="247" y="12" type="curve" smooth="yes"/>
      <point x="418" y="12"/>
      <point x="538" y="85"/>
      <point x="538" y="269" type="curve" smooth="yes"/>
      <point x="538" y="366"/>
      <point x="468" y="398"/>
      <point x="339" y="459" type="curve" smooth="yes"/>
      <point x="271" y="490"/>
      <point x="227" y="506"/>
      <point x="227" y="549" type="curve" smooth="yes"/>
      <point x="227" y="598"/>
      <point x="262" y="620"/>
      <point x="347" y="620" type="curve" smooth="yes"/>
      <point x="450" y="620"/>
      <point x="499" y="594"/>
      <point x="524" y="576" type="curve"/>
      <point x="516" y="592"/>
      <point x="483" y="614"/>
      <point x="450" y="624" type="curve"/>
      <point x="423" y="517" type="line"/>
      <point x="564" y="517" type="line"/>
      <point x="595" y="640" type="line"/>
      <point x="558" y="668"/>
      <point x="466" y="698"/>
      <point x="347" y="698" type="curve" smooth="yes"/>
      <point x="159" y="698"/>
      <point x="75" y="600"/>
      <point x="75" y="473" type="curve" smooth="yes"/>
      <point x="75" y="360"/>
      <point x="141" y="330"/>
      <point x="245" y="281" type="curve" smooth="yes"/>
      <point x="337" y="237"/>
      <point x="382" y="230"/>
      <point x="382" y="175" type="curve" smooth="yes"/>
      <point x="382" y="119"/>
      <point x="349" y="91"/>
      <point x="253" y="91" type="curve" smooth="yes"/>
      <point x="138" y="91"/>
      <point x="82" y="125"/>
      <point x="50" y="154" type="curve"/>
      <point x="50" y="137"/>
      <point x="94" y="92"/>
      <point x="129" y="92" type="curve"/>
      <point x="161" y="219" type="line"/>
      <point x="13" y="219" type="line"/>
      <point x="-20" y="85" type="line"/>
      <point x="27" y="49"/>
      <point x="101" y="12"/>
    </contour>
    <contour>
      <point x="123" y="-120" type="line"/>
      <point x="230" y="-120" type="line"/>
      <point x="274" y="59" type="line"/>
      <point x="167" y="60" type="line"/>
    </contour>
    <contour>
      <point x="423" y="654" type="line"/>
      <point x="456" y="790" type="line"/>
      <point x="349" y="790" type="line"/>
      <point x="314" y="646" type="line"/>
    </contour>
  </outline>
</glyph>
<glyph name="dollar.proportional" format="2">
  <advance width="582"/>
  <outline>
    <contour>
      <point x="243" y="12" type="curve" smooth="yes"/>
      <point x="414" y="12"/>
      <point x="533" y="93"/>
      <point x="533" y="250" type="curve" smooth="yes"/>
      <point x="533" y="357"/>
      <point x="461" y="405"/>
      <point x="334" y="456" type="curve" smooth="yes"/>
      <point x="268" y="483"/>
      <point x="194" y="506"/>
      <point x="194" y="553" type="curve" smooth="yes"/>
      <point x="194" y="601"/>
      <point x="235" y="626"/>
      <point x="342" y="626" type="curve" smooth="yes"/>
      <point x="442" y="626"/>
      <point x="494" y="600"/>
      <point x="519" y="582" type="curve"/>
      <point x="511" y="599"/>
      <point x="492" y="614"/>
      <point x="458" y="624" type="curve"/>
      <point x="431" y="517" type="line"/>
      <point x="559" y="517" type="line"/>
      <point x="590" y="640" type="line"/>
      <point x="553" y="668"/>
      <point x="456" y="698"/>
      <point x="339" y="698" type="curve" smooth="yes"/>
      <point x="154" y="698"/>
      <point x="68" y="601"/>
      <point x="68" y="478" type="curve" smooth="yes"/>
      <point x="68" y="365"/>
      <point x="138" y="328"/>
      <point x="240" y="284" type="curve" smooth="yes"/>
      <point x="326" y="246"/>
      <point x="403" y="233"/>
      <point x="403" y="172" type="curve"/>
      <point x="403" y="111"/>
      <point x="340" y="83"/>
      <point x="250" y="83" type="curve" smooth="yes"/>
      <point x="136" y="83"/>
      <point x="77" y="117"/>
      <point x="45" y="146" type="curve"/>
      <point x="45" y="129"/>
      <point x="81" y="92"/>
      <point x="116" y="92" type="curve"/>
      <point x="148" y="219" type="line"/>
      <point x="8" y="219" type="line"/>
      <point x="-25" y="85" type="line"/>
      <point x="21" y="49"/>
      <point x="100" y="12"/>
    </contour>
    <contour>
      <point x="118" y="-120" type="line"/>
      <point x="225" y="-120" type="line"/>
      <point x="269" y="59" type="line"/>
      <point x="248" y="81" type="line"/>
      <point x="385" y="633" type="line"/>
      <point x="418" y="654" type="line"/>
      <point x="451" y="790" type="line"/>
      <point x="344" y="790" type="line"/>
      <point x="309" y="646" type="line"/>
      <point x="331" y="627" type="line"/>
      <point x="194" y="79" type="line"/>
      <point x="162" y="60" type="line"/>
    </contour>
  </outline>
</glyph>
<glyph name="f.alt" format="2">
  <advance width="457"/>
  <outline>
    <contour>
      <point x="74" y="569" type="line"/>
      <point x="53" y="485" type="line"/>
      <point x="464" y="485" type="line"/>
      <point x="484" y="569" type="line"/>
    </contour>
    <contour>
      <point x="434" y="787" type="curve" smooth="yes"/>
      <point x="299" y="787"/>
      <point x="180" y="747"/>
      <point x="159" y="622" type="curve" smooth="yes"/>
      <point x="17" y="-241" type="line"/>
      <point x="183" y="-241" type="line"/>
      <point x="380" y="617" type="line" smooth="yes"/>
      <point x="396" y="686"/>
      <point x="411" y="715"/>
      <point x="458" y="715" type="curve" smooth="yes"/>
      <point x="483" y="715"/>
      <point x="509" y="706"/>
      <point x="531" y="692" type="curve"/>
      <point x="518" y="714"/>
      <point x="512" y="729"/>
      <point x="487" y="729" type="curve"/>
      <point x="464" y="640" type="line"/>
      <point x="600" y="640" type="line"/>
      <point x="629" y="755" type="line"/>
      <point x="595" y="769"/>
      <point x="531" y="787"/>
    </contour>
  </outline>
</glyph>
<glyph name="kip.proportional" format="2">
  <advance width="645"/>
  <outline>
    <contour>
      <point x="-43" y="0" type="line"/>
      <point x="206" y="0" type="line"/>
      <point x="227" y="82" type="line"/>
      <point x="227" y="82" type="line" smooth="yes"/>
      <point x="219" y="82"/>
      <point x="205" y="85"/>
      <point x="207" y="92" type="curve" smooth="yes"/>
      <point x="339" y="619" type="line" smooth="yes"/>
      <point x="341" y="626"/>
      <point x="345" y="629"/>
      <point x="365" y="629" type="curve" smooth="yes"/>
      <point x="366" y="629" type="line"/>
      <point x="386" y="710" type="line"/>
      <point x="136" y="710" type="line"/>
      <point x="115" y="629" type="line"/>
      <point x="120" y="629" type="line" smooth="yes"/>
      <point x="143" y="629"/>
      <point x="145" y="622"/>
      <point x="138" y="593" type="curve" smooth="yes"/>
      <point x="20" y="118" type="line" smooth="yes"/>
      <point x="13" y="89"/>
      <point x="7" y="82"/>
      <point x="-17" y="82" type="curve" smooth="yes"/>
      <point x="-22" y="82" type="line"/>
    </contour>
    <contour>
      <point x="44" y="414" type="line"/>
      <point x="24" y="334" type="line"/>
      <point x="569" y="334" type="line"/>
      <point x="589" y="414" type="line"/>
    </contour>
    <contour>
      <point x="265" y="0" type="line"/>
      <point x="514" y="0" type="line"/>
      <point x="535" y="82" type="line"/>
      <point x="529" y="82" type="line" smooth="yes"/>
      <point x="508" y="82"/>
      <point x="500" y="87"/>
      <point x="495" y="115" type="curve" smooth="yes"/>
      <point x="444" y="410" type="line"/>
      <point x="389" y="349" type="line"/>
      <point x="575" y="600" type="line" smooth="yes"/>
      <point x="592" y="623"/>
      <point x="608" y="629"/>
      <point x="639" y="629" type="curve" smooth="yes"/>
      <point x="640" y="629" type="line"/>
      <point x="661" y="710" type="line"/>
      <point x="450" y="710" type="line"/>
      <point x="430" y="629" type="line"/>
      <point x="433" y="629" type="line" smooth="yes"/>
      <point x="456" y="629"/>
      <point x="470" y="626"/>
      <point x="469" y="619" type="curve"/>
      <point x="293" y="377" type="line"/>
      <point x="274" y="357" type="line"/>
      <point x="314" y="92" type="line"/>
      <point x="312" y="85"/>
      <point x="301" y="82"/>
      <point x="286" y="82" type="curve" smooth="yes"/>
      <point x="286" y="82" type="line"/>
    </contour>
  </outline>
</glyph>
<glyph name="lira.altprop" format="2">
  <advance width="596"/>
  <outline>
    <contour>
      <point x="-33" y="0" type="line"/>
      <point x="465" y="0" type="line"/>
      <point x="517" y="221" type="line"/>
      <point x="411" y="221" type="line"/>
      <point x="387" y="149" type="line" smooth="yes"/>
      <point x="376" y="117"/>
      <point x="341" y="114"/>
      <point x="265" y="114" type="curve" smooth="yes"/>
      <point x="85" y="114" type="line"/>
      <point x="118" y="109" type="line"/>
      <point x="228" y="130"/>
      <point x="332" y="198"/>
      <point x="332" y="339" type="curve" smooth="yes"/>
      <point x="332" y="420"/>
      <point x="325" y="468"/>
      <point x="325" y="528" type="curve" smooth="yes"/>
      <point x="325" y="605"/>
      <point x="336" y="651"/>
      <point x="401" y="651" type="curve" smooth="yes"/>
      <point x="450" y="651"/>
      <point x="497" y="635"/>
      <point x="519" y="614" type="curve"/>
      <point x="510" y="622"/>
      <point x="482" y="678"/>
      <point x="451" y="680" type="curve"/>
      <point x="421" y="563" type="line"/>
      <point x="574" y="563" type="line"/>
      <point x="606" y="691" type="line"/>
      <point x="564" y="714"/>
      <point x="489" y="735"/>
      <point x="382" y="735" type="curve"/>
      <point x="194" y="735"/>
      <point x="118" y="676"/>
      <point x="118" y="581" type="curve" smooth="yes"/>
      <point x="118" y="510"/>
      <point x="167" y="453"/>
      <point x="167" y="344" type="curve" smooth="yes"/>
      <point x="167" y="215"/>
      <point x="113" y="167"/>
      <point x="0" y="133" type="curve"/>
    </contour>
    <contour>
      <point x="38" y="353" type="line"/>
      <point x="20" y="281" type="line"/>
      <point x="421" y="281" type="line"/>
      <point x="439" y="353" type="line"/>
    </contour>
    <contour>
      <point x="75" y="500" type="line"/>
      <point x="57" y="428" type="line"/>
      <point x="458" y="428" type="line"/>
      <point x="476" y="500" type="line"/>
    </contour>
  </outline>
</glyph>
<glyph name="naira.proportional" format="2">
  <advance width="718"/>
  <outline>
    <contour>
      <point x="0" y="0" type="line"/>
      <point x="170" y="0" type="line"/>
      <point x="191" y="82" type="line"/>
      <point x="183" y="82" type="line" smooth="yes"/>
      <point x="158" y="82"/>
      <point x="145" y="88"/>
      <point x="147" y="95" type="curve" smooth="yes"/>
      <point x="296" y="696" type="line"/>
      <point x="269" y="698" type="line"/>
      <point x="282" y="0" type="line"/>
      <point x="492" y="0" type="line"/>
      <point x="639" y="588" type="line" smooth="yes"/>
      <point x="646" y="617"/>
      <point x="663" y="629"/>
      <point x="690" y="629" type="curve" smooth="yes"/>
      <point x="696" y="629" type="line"/>
      <point x="716" y="710" type="line"/>
      <point x="554" y="710" type="line"/>
      <point x="534" y="629" type="line"/>
      <point x="541" y="629" type="line"/>
      <point x="567" y="629"/>
      <point x="574" y="623"/>
      <point x="572" y="616" type="curve" smooth="yes"/>
      <point x="427" y="35" type="line"/>
      <point x="451" y="24" type="line"/>
      <point x="445" y="710" type="line"/>
      <point x="178" y="710" type="line"/>
      <point x="155" y="618" type="line"/>
      <point x="161" y="618" type="line" smooth="yes"/>
      <point x="186" y="618"/>
      <point x="201" y="611"/>
      <point x="194" y="582" type="curve" smooth="yes"/>
      <point x="80" y="123" type="line" smooth="yes"/>
      <point x="73" y="94"/>
      <point x="55" y="82"/>
      <point x="27" y="82" type="curve" smooth="yes"/>
      <point x="21" y="82" type="line"/>
    </contour>
    <contour>
      <point x="231" y="509" type="line"/>
      <point x="75" y="509" type="line"/>
      <point x="53" y="421" type="line"/>
      <point x="207" y="421" type="line"/>
    </contour>
    <contour>
      <point x="399" y="506" type="line"/>
      <point x="537" y="433" type="line"/>
      <point x="547" y="421" type="line"/>
      <point x="697" y="421" type="line"/>
      <point x="719" y="509" type="line"/>
      <point x="400" y="509" type="line"/>
    </contour>
    <contour>
      <point x="485" y="197" type="line"/>
      <point x="642" y="197" type="line"/>
      <point x="664" y="285" type="line"/>
      <point x="509" y="285" type="line"/>
    </contour>
    <contour>
      <point x="334" y="201" type="line"/>
      <point x="175" y="273" type="line"/>
      <point x="178" y="285" type="line"/>
      <point x="20" y="285" type="line"/>
      <point x="-2" y="197" type="line"/>
      <point x="333" y="197" type="line"/>
    </contour>
  </outline>
</glyph>
<glyph name="nine.linprop" format="2">
  <advance width="550"/>
  <outline>
    <contour>
      <point x="328" y="735" type="curve" smooth="yes"/>
      <point x="473" y="735"/>
      <point x="541" y="662"/>
      <point x="541" y="512" type="curve" smooth="yes"/>
      <point x="541" y="262"/>
      <point x="412" y="-15"/>
      <point x="-10" y="-22" type="curve"/>
      <point x="0" y="66" type="line"/>
      <point x="179.99333937780563" y="79.99948195160711"/>
      <point x="274.3396847294174" y="139.46415831645436"/>
      <point x="332" y="388" type="curve" smooth="yes"/>
      <point x="355" y="485"/>
      <point x="363" y="562"/>
      <point x="363" y="600" type="curve" smooth="yes"/>
      <point x="363" y="640"/>
      <point x="353" y="657"/>
      <point x="327" y="657" type="curve" smooth="yes"/>
      <point x="289" y="657"/>
      <point x="277" y="619"/>
      <point x="250" y="496" type="curve" smooth="yes"/>
      <point x="239" y="448"/>
      <point x="234" y="416"/>
      <point x="234" y="391" type="curve" smooth="yes"/>
      <point x="234" y="354"/>
      <point x="250" y="340"/>
      <point x="266" y="340" type="curve" smooth="yes"/>
      <point x="295" y="340"/>
      <point x="313" y="367"/>
      <point x="357" y="429" type="curve"/>
      <point x="362" y="400" type="line"/>
      <point x="313.21474391100577" y="324.8707056229489"/>
      <point x="262.0" y="261.0"/>
      <point x="174" y="261" type="curve" smooth="yes"/>
      <point x="90" y="261"/>
      <point x="41" y="314"/>
      <point x="41" y="401" type="curve" smooth="yes"/>
      <point x="41" y="565"/>
      <point x="116" y="735"/>
    </contour>
  </outline>
</glyph>
<glyph name="one.linprop" format="2">
  <advance width="450"/>
  <outline>
    <contour>
      <point x="291" y="119" type="curve" smooth="yes"/>
      <point x="439" y="710" type="line"/>
      <point x="258" y="710" type="line"/>
      <point x="214" y="664"/>
      <point x="184" y="624"/>
      <point x="94" y="623" type="curve"/>
      <point x="65" y="508" type="line"/>
      <point x="142" y="507"/>
      <point x="178" y="533"/>
      <point x="227" y="637" type="curve"/>
      <point x="209" y="630" type="line"/>
      <point x="81" y="119" type="line" smooth="yes"/>
      <point x="71" y="81"/>
      <point x="51" y="73"/>
      <point x="17" y="73" type="curve" smooth="yes"/>
      <point x="-20" y="73" type="line"/>
      <point x="-39" y="0" type="line"/>
      <point x="328" y="0" type="line"/>
      <point x="347" y="73" type="line"/>
      <point x="327" y="73" type="line" smooth="yes"/>
      <point x="302" y="73"/>
      <point x="282" y="81"/>
    </contour>
  </outline>
</glyph>
<glyph name="one.midprop" format="2">
  <advance width="433"/>
  <outline>
    <contour>
      <point x="286" y="119" type="curve" smooth="yes"/>
      <point x="427" y="679" type="line"/>
      <point x="245" y="679" type="line"/>
      <point x="203" y="635"/>
      <point x="172" y="599"/>
      <point x="83" y="598" type="curve"/>
      <point x="55" y="483" type="line"/>
      <point x="130" y="482"/>
      <point x="167" y="506"/>
      <point x="214" y="606" type="curve"/>
      <point x="197" y="599" type="line"/>
      <point x="76" y="119" type="line" smooth="yes"/>
      <point x="66" y="81"/>
      <point x="45" y="73"/>
      <point x="11" y="73" type="curve" smooth="yes"/>
      <point x="-26" y="73" type="line"/>
      <point x="-44" y="0" type="line"/>
      <point x="327" y="0" type="line"/>
      <point x="345" y="73" type="line"/>
      <point x="323" y="73" type="line" smooth="yes"/>
      <point x="298" y="73"/>
      <point x="276" y="81"/>
    </contour>
  </outline>
</glyph>
<glyph name="parenleft.uc" format="2">
  <advance width="412"/>
  <outline>
    <contour>
      <point x="156" y="-80" type="curve"/>
      <point x="295" y="-80" type="line"/>
      <point x="296" y="-77" type="line"/>
      <point x="263" y="-25"/>
      <point x="219" y="80"/>
      <point x="219" y="222" type="curve" smooth="yes"/>
      <point x="219" y="469"/>
      <point x="360" y="638"/>
      <point x="512" y="747" type="curve"/>
      <point x="513" y="750" type="line"/>
      <point x="369" y="750" type="line"/>
      <point x="201.1330932741697" y="684.0522866434238"/>
      <point x="34.0" y="490.55049504950495"/>
      <point x="34" y="248" type="curve" smooth="yes"/>
      <point x="34.0" y="115.79076923076923"/>
      <point x="94.01415910763605" y="-7.8525458465927755"/>
    </contour>
  </outline>
</glyph>
<glyph name="peso.proportional" format="2">
  <advance width="669"/>
  <outline>
    <contour>
      <point x="103" y="500" type="line"/>
      <point x="81" y="412" type="line"/>
      <point x="186" y="412" type="line"/>
      <point x="218" y="435" type="line"/>
      <point x="512" y="435" type="line"/>
      <point x="524" y="412" type="line"/>
      <point x="648" y="412" type="line"/>
      <point x="670" y="500" type="line"/>
      <point x="558" y="500" type="line"/>
      <point x="519" y="477" type="line"/>
      <point x="228" y="477" type="line"/>
      <point x="212" y="500" type="line"/>
    </contour>
    <contour>
      <point x="-22" y="0" type="line"/>
      <point x="259" y="0" type="line"/>
      <point x="278" y="75" type="line"/>
      <point x="271" y="75" type="line" smooth="yes"/>
      <point x="251" y="75"/>
      <point x="224" y="78"/>
      <point x="226" y="85" type="curve" smooth="yes"/>
      <point x="254" y="199" type="line"/>
      <point x="298" y="199" type="line" smooth="yes"/>
      <point x="491" y="199"/>
      <point x="605" y="351"/>
      <point x="605" y="523" type="curve" smooth="yes"/>
      <point x="605" y="641"/>
      <point x="528" y="710"/>
      <point x="385" y="710" type="curve" smooth="yes"/>
      <point x="156" y="710" type="line"/>
      <point x="136" y="629" type="line"/>
      <point x="147" y="629" type="line" smooth="yes"/>
      <point x="169" y="629"/>
      <point x="182" y="621"/>
      <point x="174" y="591" type="curve" smooth="yes"/>
      <point x="54" y="111" type="line" smooth="yes"/>
      <point x="47" y="82"/>
      <point x="30" y="75"/>
      <point x="9" y="75" type="curve" smooth="yes"/>
      <point x="-2" y="75" type="line"/>
    </contour>
    <contour>
      <point x="388" y="639" type="line" smooth="yes"/>
      <point x="426" y="639"/>
      <point x="441" y="626"/>
      <point x="441" y="586" type="curve" smooth="yes"/>
      <point x="441" y="555"/>
      <point x="433" y="510"/>
      <point x="417" y="445" type="curve" smooth="yes"/>
      <point x="379" y="286"/>
      <point x="361" y="268"/>
      <point x="298" y="268" type="curve" smooth="yes"/>
      <point x="271" y="268" type="line"/>
      <point x="364" y="639" type="line"/>
    </contour>
  </outline>
</glyph>
<glyph name="seven.oldprop" format="2">
  <advance width="469"/>
  <outline>
    <contour>
      <point x="237" y="502" type="line" smooth="yes"/>
      <point x="173" y="502"/>
      <point x="145" y="496"/>
      <point x="133" y="459" type="curve" smooth="yes"/>
      <point x="107" y="382" type="line"/>
      <point x="23" y="382" type="line"/>
      <point x="87" y="639" type="line"/>
      <point x="510" y="639" type="line"/>
      <point x="474" y="493" type="line"/>
      <point x="339" y="386"/>
      <point x="310" y="256"/>
      <point x="227" y="-77" type="curve"/>
      <point x="20" y="-77" type="line"/>
      <point x="109" y="235"/>
      <point x="304" y="452"/>
      <point x="415" y="511" type="curve"/>
      <point x="427" y="502" type="line"/>
    </contour>
  </outline>
</glyph>
<glyph name="six.lintab" format="2">
  <advance width="560"/>
  <outline>
    <contour>
      <point x="246" y="-10" type="curve" smooth="yes"/>
      <point x="457" y="-10"/>
      <point x="526" y="163"/>
      <point x="526" y="330" type="curve" smooth="yes"/>
      <point x="526" y="419"/>
      <point x="474" y="473"/>
      <point x="387" y="473" type="curve" smooth="yes"/>
      <point x="296.0" y="473.0"/>
      <point x="240" y="410"/>
      <point x="191" y="334" type="curve"/>
      <point x="196" y="305" type="line"/>
      <point x="241" y="368"/>
      <point x="263" y="393.0"/>
      <point x="293" y="393" type="curve" smooth="yes"/>
      <point x="312" y="393.0"/>
      <point x="333.0" y="381"/>
      <point x="333" y="345" type="curve" smooth="yes"/>
      <point x="333.0" y="319"/>
      <point x="327" y="284"/>
      <point x="316" y="234" type="curve" smooth="yes"/>
      <point x="288" y="108"/>
      <point x="271" y="68.0"/>
      <point x="232" y="68" type="curve" smooth="yes"/>
      <point x="202" y="68.0"/>
      <point x="190.0" y="85"/>
      <point x="190" y="125" type="curve" smooth="yes"/>
      <point x="190.0" y="163"/>
      <point x="196" y="218"/>
      <point x="221" y="314" type="curve" smooth="yes"/>
      <point x="290" y="577"/>
      <point x="371" y="647"/>
      <point x="567" y="662" type="curve"/>
      <point x="577" y="750" type="line"/>
      <point x="132" y="743"/>
      <point x="12" y="433"/>
      <point x="12" y="217" type="curve" smooth="yes"/>
      <point x="12" y="69"/>
      <point x="91" y="-10"/>
    </contour>
  </outline>
</glyph>
<glyph name="six.oldprop" format="2">
  <advance width="545"/>
  <outline>
    <contour>
      <point x="239" y="-10" type="curve" smooth="yes"/>
      <point x="447" y="-10"/>
      <point x="515" y="163"/>
      <point x="515" y="330" type="curve" smooth="yes"/>
      <point x="515" y="419"/>
      <point x="464" y="473"/>
      <point x="380" y="473" type="curve" smooth="yes"/>
      <point x="291.0" y="473.0"/>
      <point x="236.7758912458121" y="410.0903903434668"/>
      <point x="188" y="334" type="curve"/>
      <point x="193" y="305" type="line"/>
      <point x="237" y="367"/>
      <point x="257" y="393"/>
      <point x="286" y="393" type="curve" smooth="yes"/>
      <point x="303" y="393"/>
      <point x="322" y="381"/>
      <point x="322" y="345" type="curve" smooth="yes"/>
      <point x="322" y="319"/>
      <point x="316" y="284"/>
      <point x="305" y="234" type="curve" smooth="yes"/>
      <point x="277" y="108"/>
      <point x="262" y="68"/>
      <point x="225" y="68" type="curve" smooth="yes"/>
      <point x="198" y="68"/>
      <point x="187" y="85"/>
      <point x="187" y="125" type="curve" smooth="yes"/>
      <point x="187" y="163"/>
      <point x="193" y="218"/>
      <point x="218" y="314" type="curve" smooth="yes"/>
      <point x="287" y="576"/>
      <point x="369" y="648"/>
      <point x="544" y="662" type="curve"/>
      <point x="554" y="750" type="line"/>
      <point x="135" y="743"/>
      <point x="9" y="433"/>
      <point x="9" y="217" type="curve" smooth="yes"/>
      <point x="9" y="69"/>
      <point x="86" y="-10"/>
    </contour>
  </outline>
</glyph>
<glyph name="sterling.proportional" format="2">
  <advance width="612"/>
  <outline>
    <contour>
      <point x="414" y="651" type="curve"/>
      <point x="465" y="651"/>
      <point x="506" y="636"/>
      <point x="529" y="614" type="curve"/>
      <point x="520" y="622"/>
      <point x="489" y="678"/>
      <point x="458" y="680" type="curve"/>
      <point x="414" y="507" type="line"/>
      <point x="570" y="507" type="line"/>
      <point x="614" y="682" type="line"/>
      <point x="580" y="706"/>
      <point x="501" y="735"/>
      <point x="387" y="735" type="curve" smooth="yes"/>
      <point x="187" y="735"/>
      <point x="101" y="662"/>
      <point x="101" y="553" type="curve" smooth="yes"/>
      <point x="101" y="471"/>
      <point x="161" y="429"/>
      <point x="161" y="342" type="curve" smooth="yes"/>
      <point x="161" y="222"/>
      <point x="125" y="151"/>
      <point x="9" y="129" type="curve"/>
      <point x="-26" y="-13" type="line"/>
      <point x="204" y="22"/>
      <point x="333" y="177"/>
      <point x="333" y="347" type="curve" smooth="yes"/>
      <point x="333" y="422"/>
      <point x="326" y="459"/>
      <point x="326" y="516" type="curve" smooth="yes"/>
      <point x="326" y="604"/>
      <point x="345" y="651"/>
    </contour>
    <contour>
      <point x="69" y="410" type="line"/>
      <point x="45" y="316" type="line"/>
      <point x="445" y="316" type="line"/>
      <point x="469" y="410" type="line"/>
    </contour>
    <contour>
      <point x="360" y="-10" type="curve" smooth="yes"/>
      <point x="466" y="-10"/>
      <point x="504" y="77"/>
      <point x="548" y="225" type="curve"/>
      <point x="463" y="255" type="line"/>
      <point x="437" y="178"/>
      <point x="421" y="155"/>
      <point x="365" y="155" type="curve" smooth="yes"/>
      <point x="301" y="155"/>
      <point x="294" y="185"/>
      <point x="279" y="231" type="curve"/>
      <point x="224" y="174" type="line"/>
      <point x="245" y="42"/>
      <point x="265" y="-10"/>
    </contour>
  </outline>
</glyph>
<glyph name="three.oldprop" format="2">
  <advance width="526"/>
  <outline>
    <contour>
      <point x="195" y="-90" type="curve" smooth="yes"/>
      <point x="387" y="-90"/>
      <point x="476" y="-13"/>
      <point x="476" y="127" type="curve" smooth="yes"/>
      <point x="476" y="226"/>
      <point x="417" y="281"/>
      <point x="292" y="294" type="curve"/>
      <point x="322" y="270" type="line"/>
      <point x="331" y="308" type="line"/>
      <point x="293" y="296" type="line"/>
      <point x="447" y="299"/>
      <point x="532" y="352"/>
      <point x="532" y="489" type="curve" smooth="yes"/>
      <point x="532" y="591"/>
      <point x="454" y="649"/>
      <point x="313" y="649" type="curve" smooth="yes"/>
      <point x="230" y="649"/>
      <point x="170" y="630"/>
      <point x="129" y="615" type="curve"/>
      <point x="90" y="455" type="line"/>
      <point x="238" y="455" type="line"/>
      <point x="268" y="575" type="line"/>
      <point x="234" y="571"/>
      <point x="217" y="568"/>
      <point x="214" y="557" type="curve"/>
      <point x="232" y="563"/>
      <point x="256" y="571"/>
      <point x="279" y="571" type="curve" smooth="yes"/>
      <point x="320" y="571"/>
      <point x="337" y="555"/>
      <point x="337" y="504" type="curve" smooth="yes"/>
      <point x="337" y="423"/>
      <point x="308" y="339"/>
      <point x="225" y="339" type="curve" smooth="yes"/>
      <point x="148" y="339" type="line"/>
      <point x="125" y="250" type="line"/>
      <point x="192" y="250" type="line" smooth="yes"/>
      <point x="252" y="250"/>
      <point x="270" y="214"/>
      <point x="270" y="163" type="curve" smooth="yes"/>
      <point x="270" y="81"/>
      <point x="256" y="-4"/>
      <point x="179" y="-4" type="curve" smooth="yes"/>
      <point x="109" y="-4"/>
      <point x="83" y="52"/>
      <point x="65" y="113" type="curve"/>
      <point x="-31" y="77" type="line"/>
      <point x="-2" y="-17"/>
      <point x="49" y="-90"/>
    </contour>
  </outline>
</glyph>
<glyph name="two.oldprop" format="2">
  <advance width="503"/>
  <outline>
    <contour>
      <point x="454" y="147" type="line"/>
      <point x="30" y="147" type="line"/>
      <point x="25" y="139" type="line"/>
      <point x="323" y="232"/>
      <point x="505" y="261"/>
      <point x="505" y="474" type="curve" smooth="yes"/>
      <point x="505" y="594"/>
      <point x="426" y="649"/>
      <point x="279" y="649" type="curve" smooth="yes"/>
      <point x="189" y="649"/>
      <point x="120" y="614"/>
      <point x="81" y="592" type="curve"/>
      <point x="39" y="425" type="line"/>
      <point x="195" y="425" type="line"/>
      <point x="231" y="570" type="line"/>
      <point x="187" y="567"/>
      <point x="153" y="553"/>
      <point x="166" y="540" type="curve"/>
      <point x="177" y="545"/>
      <point x="211" y="566"/>
      <point x="250" y="566" type="curve" smooth="yes"/>
      <point x="280.0" y="566.0"/>
      <point x="294.0" y="552.9090909090909"/>
      <point x="294" y="494" type="curve" smooth="yes"/>
      <point x="294.0" y="353.68456375838923"/>
      <point x="250.36743525293127" y="268.1136245561273"/>
      <point x="1" y="191" type="curve"/>
      <point x="-47" y="0" type="line"/>
      <point x="417" y="0" type="line"/>
    </contour>
  </outline>
</glyph>
<glyph name="uni20B8.proportional" format="2">
  <advance width="635"/>
  <outline>
    <contour>
      <point x="157" y="121" type="line" smooth="yes"/>
      <point x="150" y="92"/>
      <point x="134" y="85"/>
      <point x="114" y="85" type="curve" smooth="yes"/>
      <point x="96" y="85" type="line"/>
      <point x="75" y="0" type="line"/>
      <point x="364" y="0" type="line"/>
      <point x="385" y="85" type="line"/>
      <point x="366" y="85" type="line" smooth="yes"/>
      <point x="351" y="85"/>
      <point x="335" y="93"/>
      <point x="342" y="121" type="curve" smooth="yes"/>
      <point x="427" y="465" type="line"/>
      <point x="434" y="465" type="line" smooth="yes"/>
      <point x="493" y="465"/>
      <point x="494" y="446"/>
      <point x="488" y="406" type="curve" smooth="yes"/>
      <point x="470" y="295" type="line"/>
      <point x="563" y="295" type="line"/>
      <point x="626" y="546" type="line"/>
      <point x="84" y="546" type="line"/>
      <point x="21" y="295" type="line"/>
      <point x="114" y="295" type="line"/>
      <point x="154" y="406" type="line" smooth="yes"/>
      <point x="168" y="446"/>
      <point x="179" y="465"/>
      <point x="237" y="465" type="curve" smooth="yes"/>
      <point x="242" y="465" type="line"/>
    </contour>
    <contour>
      <point x="131" y="750" type="line"/>
      <point x="110" y="664" type="line"/>
      <point x="658" y="664" type="line"/>
      <point x="679" y="750" type="line"/>
    </contour>
  </outline>
</glyph>
<glyph name="yen.proportional" format="2">
  <advance width="567"/>
  <outline>
    <contour>
      <point x="22" y="231" type="line"/>
      <point x="5" y="161" type="line"/>
      <point x="427" y="161" type="line"/>
      <point x="444" y="231" type="line"/>
    </contour>
    <contour>
      <point x="62" y="395" type="line"/>
      <point x="45" y="325" type="line"/>
      <point x="467" y="325" type="line"/>
      <point x="484" y="395" type="line"/>
    </contour>
    <contour>
      <point x="168" y="379" type="line"/>
      <point x="104" y="121" type="line" smooth="yes"/>
      <point x="97" y="92"/>
      <point x="81" y="85"/>
      <point x="61" y="85" type="curve" smooth="yes"/>
      <point x="40" y="85" type="line"/>
      <point x="18" y="0" type="line"/>
      <point x="330" y="0" type="line"/>
      <point x="352" y="85" type="line"/>
      <point x="330" y="85" type="line" smooth="yes"/>
      <point x="315" y="85"/>
      <point x="299" y="93"/>
      <point x="306" y="121" type="curve" smooth="yes"/>
      <point x="370" y="379" type="line"/>
    </contour>
    <contour>
      <point x="343" y="333" type="line"/>
      <point x="525" y="578" type="line" smooth="yes"/>
      <point x="548" y="609"/>
      <point x="563" y="625"/>
      <point x="590" y="625" type="curve" smooth="yes"/>
      <point x="594" y="625" type="line"/>
      <point x="616" y="710" type="line"/>
      <point x="443" y="710" type="line"/>
      <point x="421" y="625" type="line"/>
      <point x="425" y="625" type="line" smooth="yes"/>
      <point x="446" y="625"/>
      <point x="461" y="615"/>
      <point x="458" y="602" type="curve"/>
      <point x="293" y="380" type="line"/>
      <point x="339" y="382" type="line"/>
      <point x="301" y="614" type="line"/>
      <point x="302" y="621"/>
      <point x="322" y="625"/>
      <point x="346" y="625" type="curve" smooth="yes"/>
      <point x="355" y="625" type="line"/>
      <point x="377" y="710" type="line"/>
      <point x="92" y="710" type="line"/>
      <point x="70" y="625" type="line"/>
      <point x="75" y="625" type="line" smooth="yes"/>
      <point x="98" y="625"/>
      <point x="107" y="620"/>
      <point x="113" y="591" type="curve" smooth="yes"/>
      <point x="166" y="334" type="line"/>
    </contour>
  </outline>
</glyph>
<glyph name="zero.linprop" format="2">
  <advance width="586"/>
  <outline>
    <contour>
      <point x="230" y="-11.0" type="curve" smooth="yes"/>
      <point x="470" y="-11.0"/>
      <point x="567.0" y="305.0"/>
      <point x="567.0" y="518.0" type="curve" smooth="yes"/>
      <point x="567.0" y="644.0"/>
      <point x="497" y="735.0"/>
      <point x="356" y="735.0" type="curve" smooth="yes"/>
      <point x="117" y="735.0"/>
      <point x="19.0" y="419.0"/>
      <point x="19" y="206.0" type="curve" smooth="yes"/>
      <point x="19.0" y="80"/>
      <point x="88" y="-11.0"/>
    </contour>
    <contour>
      <point x="232" y="73" type="curve" smooth="yes"/>
      <point x="201" y="73.0"/>
      <point x="194.0" y="88.0"/>
      <point x="194" y="122" type="curve" smooth="yes"/>
      <point x="194.0" y="161"/>
      <point x="207" y="242"/>
      <point x="239" y="380" type="curve"/>
      <point x="294" y="614"/>
      <point x="316" y="651.0"/>
      <point x="354" y="651" type="curve" smooth="yes"/>
      <point x="386" y="651.0"/>
      <point x="392.0" y="636.0"/>
      <point x="392" y="602" type="curve" smooth="yes"/>
      <point x="392.0" y="563.0"/>
      <point x="379.0" y="482.0"/>
      <point x="347" y="344" type="curve"/>
      <point x="292" y="110"/>
      <point x="271" y="73.0"/>
    </contour>
  </outline>
</glyph>
<glyph name="zero.midprop" format="2">
  <advance width="594"/>
  <outline>
    <contour>
      <point x="235" y="-11" type="curve" smooth="yes"/>
      <point x="495" y="-11.0"/>
      <point x="575.0" y="280.0"/>
      <point x="575" y="466" type="curve" smooth="yes"/>
      <point x="575.0" y="610.0"/>
      <point x="486" y="690.0"/>
      <point x="358" y="690" type="curve"/>
      <point x="99" y="690.0"/>
      <point x="18.0" y="397.0"/>
      <point x="18" y="210" type="curve" smooth="yes"/>
      <point x="18.0" y="68.0"/>
      <point x="108" y="-11.0"/>
    </contour>
    <contour>
      <point x="236" y="71" type="curve" smooth="yes"/>
      <point x="204" y="71.0"/>
      <point x="193.0" y="87.0"/>
      <point x="193" y="128" type="curve" smooth="yes"/>
      <point x="193.0" y="166.0"/>
      <point x="203.03953245243127" y="235.16358256178458"/>
      <point x="232" y="355" type="curve"/>
      <point x="284" y="570"/>
      <point x="315" y="608.0"/>
      <point x="357" y="608" type="curve" smooth="yes"/>
      <point x="388" y="608.0"/>
      <point x="400.0" y="592.0"/>
      <point x="400" y="551" type="curve" smooth="yes"/>
      <point x="400.0" y="513.0"/>
      <point x="389.96108334154275" y="441.8376235974715"/>
      <point x="361" y="321" type="curve"/>
      <point x="310" y="109"/>
      <point x="277" y="71.0"/>
    </contour>
  </outline>
</glyph>
